HIERARCHY
ROOT Hips
{
	OFFSET 0.000000 0.000000 0.000000
	CHANNELS 6 Xposition Yposition Zposition Zrotation Yrotation Xrotation 
	JOINT LowerBack
	{
		OFFSET 0.000000 0.000000 0.000000
		CHANNELS 3 Zrotation Yrotation Xrotation
		JOINT Spine
		{
			OFFSET 0.028270 2.035590 -0.193380
			CHANNELS 3 Zrotation Yrotation Xrotation
			JOINT Spine1
			{
				OFFSET 0.056720 2.048850 -0.042750
				CHANNELS 3 Zrotation Yrotation Xrotation
				JOINT Neck
				{
					OFFSET 0.000000 0.000000 0.000000
					CHANNELS 3 Zrotation Yrotation Xrotation
					JOINT Neck1
					{
						OFFSET -0.054170 1.746240 0.172020
						CHANNELS 3 Zrotation Yrotation Xrotation
						JOINT Head
						{
							OFFSET 0.104070 1.761360 -0.123970
							CHANNELS 3 Zrotation Yrotation Xrotation
							End Site
							{
								OFFSET 0.000000 0.000000 0.000000
							}
						}
					}
				}
				JOINT LeftShoulder
				{
					OFFSET 0.000000 0.000000 0.000000
					CHANNELS 3 Zrotation Yrotation Xrotation
					JOINT LeftArm
					{
						OFFSET 3.362410 1.200890 -0.311210
						CHANNELS 3 Zrotation Yrotation Xrotation
						JOINT LeftForeArm
						{
							OFFSET 4.983000 -0.000000 -0.000000
							CHANNELS 3 Zrotation Yrotation Xrotation
							JOINT LeftHand
							{
								OFFSET 3.483560 -0.000000 -0.000000
								CHANNELS 3 Zrotation Yrotation Xrotation
								JOINT LeftFingerBase
								{
									OFFSET 0.000000 0.000000 0.000000
									CHANNELS 3 Zrotation Yrotation Xrotation
									JOINT LeftHandIndex1
									{
										OFFSET 0.715260 -0.000000 -0.000000
										CHANNELS 3 Zrotation Yrotation Xrotation
										End Site
										{
											OFFSET 0.000000 0.000000 0.000000
										}
									}
								}
								JOINT LThumb
								{
									OFFSET 0.000000 0.000000 0.000000
									CHANNELS 3 Zrotation Yrotation Xrotation
									End Site
									{
										OFFSET 0.000000 0.000000 0.000000
									}
								}
							}
						}
					}
				}
				JOINT RightShoulder
				{
					OFFSET 0.000000 0.000000 0.000000
					CHANNELS 3 Zrotation Yrotation Xrotation
					JOINT RightArm
					{
						OFFSET -3.136600 1.374050 -0.404650
						CHANNELS 3 Zrotation Yrotation Xrotation
						JOINT RightForeArm
						{
							OFFSET -5.241900 -0.000000 -0.000000
							CHANNELS 3 Zrotation Yrotation Xrotation
							JOINT RightHand
							{
								OFFSET -3.444170 -0.000000 -0.000000
								CHANNELS 3 Zrotation Yrotation Xrotation
								JOINT RightFingerBase
								{
									OFFSET 0.000000 0.000000 0.000000
									CHANNELS 3 Zrotation Yrotation Xrotation
									JOINT RightHandIndex1
									{
										OFFSET -0.622530 -0.000000 -0.000000
										CHANNELS 3 Zrotation Yrotation Xrotation
										End Site
										{
											OFFSET 0.000000 0.000000 0.000000
										}
									}
								}
								JOINT RThumb
								{
									OFFSET 0.000000 0.000000 0.000000
									CHANNELS 3 Zrotation Yrotation Xrotation
									End Site
									{
										OFFSET 0.000000 0.000000 0.000000
									}
								}
							}
						}
					}
				}
			}
		}
	}
}
}
MOTION
Frames: 16
Frame Time: 0.008333
1.759693 17.309911 0.534021 -170.410282 -40.021764 -176.876949 -1.480433 -6.663011 -7.375846 -1.216112 -6.646840 -4.585912 -9.194137 -6.568699 -3.386461 18.110522 -9.658396 0.177440 -2.207085 -0.284792 2.186334 0.000000 0.000000 0.000000 15.572961 -16.363310 5.816144 -19.339372 -0.265366 -24.048557 -2.009751 -23.313855 -0.083916 11.843018 -0.173615 -0.062230 -0.272143 0.413780 -0.000000 0.000000 0.000000 0.000000 0.000000 0.000000 0.000000 13.273660 -7.684377 -8.625158 100.414245 53.141982 42.793058 -177.139099 63.007138 179.709295 -23.496336 10.827710 -2.508422 0.454135 -0.973602 -0.000000 0.000000 0.000000 0.000000 0.000000 0.000000 0.000000 
1.750086 17.318580 0.559224 -170.245944 -39.996957 -176.990896 -1.680727 -6.954897 -7.083054 -1.244621 -6.895142 -4.476439 -9.198024 -6.818684 -3.256142 18.779947 -10.134439 -0.033877 -2.101775 -0.276415 2.127749 0.000000 0.000000 0.000000 16.874873 -16.979337 5.685996 -16.760715 -3.074452 -25.307757 -2.412036 -12.222794 -0.059627 9.156003 -0.292854 -0.055665 -0.266837 0.381403 -0.000000 0.000000 0.000000 0.000000 0.000000 0.000000 0.000000 13.784571 -8.701280 -8.561642 99.485508 53.264433 41.711228 -177.047924 62.663361 179.712228 -23.492145 10.484234 -2.429792 0.448031 -0.955021 -0.000000 0.000000 0.000000 0.000000 0.000000 0.000000 0.000000 
1.734768 17.328804 0.582274 -170.090323 -40.002396 -177.037823 -1.862648 -7.213284 -6.821597 -1.277901 -7.124013 -4.403430 -9.230539 -7.059443 -3.230939 19.392722 -10.581959 -0.224164 -2.011861 -0.269120 2.077267 0.000000 0.000000 0.000000 18.195514 -17.767104 5.430845 -14.530792 -4.982641 -28.663550 -2.551906 -3.277447 -0.039361 6.639891 -0.546312 -0.054498 -0.243889 0.355518 -0.000000 0.000000 0.000000 0.000000 0.000000 0.000000 0.000000 14.260895 -9.616765 -8.397562 98.412934 53.305866 40.485365 -176.965585 62.272852 179.714381 -23.491348 10.156822 -2.355837 0.442880 -0.939479 -0.000000 0.000000 0.000000 0.000000 0.000000 0.000000 0.000000 
1.715153 17.339926 0.602436 -169.983547 -39.995818 -177.019089 -1.966414 -7.440826 -6.615353 -1.298387 -7.338370 -4.354018 -9.276768 -7.288470 -3.243852 19.860513 -10.954290 -0.424140 -1.929257 -0.261923 2.026133 0.000000 0.000000 0.000000 19.495809 -18.484821 5.147131 -12.416825 -6.180252 -34.384701 -2.351027 3.639036 -0.028250 5.243432 -1.009280 -0.064795 -0.213220 0.341759 -0.000000 0.000000 0.000000 0.000000 0.000000 0.000000 0.000000 14.591603 -10.371572 -8.203574 97.426416 53.222172 39.314894 -176.880740 61.895779 179.715803 -23.474309 9.916548 -2.299872 0.437141 -0.928344 -0.000000 0.000000 0.000000 0.000000 0.000000 0.000000 0.000000 
1.693176 17.351030 0.619080 -169.967429 -39.912928 -176.946272 -1.936994 -7.692734 -6.513526 -1.266219 -7.581924 -4.317854 -9.219442 -7.535658 -3.177958 19.974583 -11.211108 -0.671004 -1.887869 -0.256398 1.963782 0.000000 0.000000 0.000000 21.006101 -19.268350 5.130854 -13.118707 -3.659760 -39.831165 -1.966204 0.591537 -0.038479 5.252426 2.760993 0.116019 -0.190933 0.309804 0.000000 0.000000 0.000000 0.000000 0.000000 0.000000 0.000000 14.592606 -10.749232 -8.046635 96.778389 53.017175 38.425653 -176.841964 61.626031 179.716504 -23.420113 9.812705 -2.271600 0.435300 -0.925779 -0.000000 0.000000 0.000000 0.000000 0.000000 0.000000 0.000000 
1.670488 17.361570 0.631939 -170.027459 -39.795159 -176.814586 -1.841292 -7.889763 -6.464847 -1.212027 -7.782808 -4.296127 -9.141542 -7.740682 -3.134718 19.927356 -11.358325 -0.922701 -1.830292 -0.249576 1.901235 0.000000 0.000000 0.000000 22.362724 -19.600911 5.058543 -13.403512 -2.472353 -45.352870 -1.489895 -1.292246 -0.048753 6.261853 4.827604 0.254701 -0.184945 0.294482 0.000000 0.000000 0.000000 0.000000 0.000000 0.000000 0.000000 14.378807 -11.028961 -7.931834 96.401367 52.655665 37.747716 -176.755034 61.411512 179.716462 -23.335220 9.854688 -2.271694 0.427790 -0.926700 -0.000000 0.000000 0.000000 0.000000 0.000000 0.000000 0.000000 
1.648419 17.371417 0.640786 -170.159120 -39.654039 -176.626975 -1.723130 -8.027864 -6.460577 -1.145907 -7.933755 -4.280449 -9.046139 -7.894887 -3.094247 19.773515 -11.423178 -1.186941 -1.755234 -0.241197 1.835760 0.000000 0.000000 0.000000 23.641680 -19.443995 4.931257 -13.046289 -2.762994 -52.444050 -0.833691 -1.668532 -0.057878 7.837067 4.719799 0.308769 -0.183141 0.304415 0.000000 0.000000 0.000000 0.000000 0.000000 0.000000 0.000000 14.017801 -11.240162 -7.865194 96.224781 52.189849 37.235070 -176.623085 61.232412 179.715942 -23.228293 10.007014 -2.292961 0.415269 -0.929447 -0.000000 0.000000 0.000000 0.000000 0.000000 0.000000 0.000000 
1.627591 17.380520 0.645815 -170.341591 -39.509576 -176.389841 -1.629513 -8.108845 -6.487412 -1.077250 -8.033144 -4.257397 -8.932845 -7.994302 -3.015955 19.578897 -11.444592 -1.488746 -1.663509 -0.230786 1.759678 0.000000 0.000000 0.000000 24.951703 -18.767324 4.780804 -11.988612 -4.400130 -61.653791 0.019100 -0.825961 -0.065211 9.390455 2.378547 0.169238 -0.176047 0.344826 -0.000000 0.000000 0.000000 0.000000 0.000000 0.000000 0.000000 13.592149 -11.404205 -7.852460 96.145270 51.696392 36.815623 -176.459871 61.060398 179.715304 -23.111516 10.218157 -2.324993 0.399628 -0.932224 -0.000000 0.000000 0.000000 0.000000 0.000000 0.000000 0.000000 
1.609012 17.388808 0.647929 -170.560089 -39.384291 -176.119579 -1.583099 -8.140551 -6.526781 -1.005800 -8.085546 -4.205830 -8.788361 -8.039366 -2.821290 19.385023 -11.471451 -1.881834 -1.557924 -0.217422 1.657176 0.000000 0.000000 0.000000 26.212686 -17.318032 4.679834 -9.999320 -7.307597 -72.149860 0.948765 0.852241 -0.070363 10.095373 -1.949022 -0.213476 -0.153025 0.420549 0.000000 0.000000 0.000000 0.000000 0.000000 0.000000 0.000000 13.157755 -11.535782 -7.923212 96.124263 51.269338 36.483358 -176.285439 60.877773 179.714960 -22.995166 10.445945 -2.359778 0.383545 -0.933840 -0.000000 0.000000 0.000000 0.000000 0.000000 0.000000 0.000000 
1.593465 17.395866 0.647987 -170.806229 -39.302322 -175.832839 -1.580742 -8.130237 -6.573704 -0.932533 -8.097630 -4.124563 -8.622730 -8.037604 -2.495345 19.199419 -11.526335 -2.353459 -1.445452 -0.201723 1.531759 0.000000 0.000000 0.000000 27.132239 -15.199510 4.695160 -6.514431 -10.941781 -80.031558 1.560960 3.831693 -0.073367 9.586940 -7.609339 -0.693976 -0.123156 0.530990 -0.000000 0.000000 0.000000 0.000000 0.000000 0.000000 0.000000 12.737782 -11.626404 -8.070914 96.155515 50.943227 36.235890 -176.118904 60.698972 179.715012 -22.884615 10.664506 -2.392691 0.368727 -0.934201 -0.000000 0.000000 0.000000 0.000000 0.000000 0.000000 0.000000 
1.580746 17.401702 0.645846 -171.088772 -39.253392 -175.518191 -1.578330 -8.131070 -6.638369 -0.821426 -8.109301 -4.083763 -8.291652 -8.041921 -2.295705 18.780193 -11.580725 -2.670052 -1.416190 -0.193858 1.449934 0.000000 0.000000 0.000000 28.048078 -13.313838 4.506897 -6.988541 -13.556714 -79.985682 1.804474 -1.616198 -0.079309 8.785071 -7.740068 -0.652362 -0.112949 0.611456 -0.000000 0.000000 0.000000 0.000000 0.000000 0.000000 0.000000 12.150203 -11.558818 -8.170719 96.237220 50.646045 36.112508 -176.031236 60.627269 179.714358 -22.780143 10.849232 -2.420035 0.359732 -0.938493 -0.000000 0.000000 0.000000 0.000000 0.000000 0.000000 0.000000 
1.570230 17.406767 0.641725 -171.406842 -39.300116 -175.176343 -1.567980 -8.105354 -6.746548 -0.722668 -8.099122 -4.090969 -7.984614 -8.033485 -2.249976 18.254814 -11.607130 -2.780949 -1.446435 -0.193450 1.426406 0.000000 0.000000 0.000000 28.620402 -12.322382 4.222523 -7.908667 -14.703368 -75.097737 1.778228 -8.749366 -0.089019 8.704971 -6.412127 -0.550383 -0.137530 0.681823 -0.000000 0.000000 0.000000 0.000000 0.000000 0.000000 0.000000 11.540124 -11.396309 -8.180956 96.275520 50.321396 35.981995 -175.999936 60.625101 179.713338 -22.691859 10.974231 -2.437119 0.354562 -0.944097 -0.000000 0.000000 0.000000 0.000000 0.000000 0.000000 0.000000 
1.562121 17.410847 0.637521 -171.741665 -39.471057 -174.835745 -1.545083 -8.039958 -6.880414 -0.650686 -8.057666 -4.127060 -7.756201 -7.997302 -2.298062 17.687913 -11.605264 -2.733499 -1.519083 -0.198500 1.447222 0.000000 0.000000 0.000000 28.828402 -11.921585 3.895411 -8.215343 -14.980660 -70.921492 1.773051 -15.747294 -0.103389 8.971636 -5.568523 -0.506656 -0.159970 0.756018 -0.000000 0.000000 0.000000 0.000000 0.000000 0.000000 0.000000 10.965011 -11.178806 -8.124132 96.242530 49.996059 35.801895 -176.013354 60.669750 179.712215 -22.627166 11.035194 -2.443653 0.352658 -0.949703 -0.000000 0.000000 0.000000 0.000000 0.000000 0.000000 0.000000 
1.556507 17.413515 0.635153 -172.076584 -39.770595 -174.516867 -1.498812 -7.940480 -7.009043 -0.602679 -7.988637 -4.178114 -7.603662 -7.933821 -2.407694 17.110285 -11.568210 -2.569398 -1.615342 -0.207010 1.500102 0.000000 0.000000 0.000000 28.757253 -11.766760 3.512911 -7.923729 -15.104077 -68.328805 1.813843 -22.283350 -0.120220 9.396890 -5.448733 -0.527181 -0.172215 0.832883 -0.000000 0.000000 0.000000 0.000000 0.000000 0.000000 0.000000 10.424953 -10.928314 -8.025215 96.168109 49.689931 35.588403 -176.055676 60.761662 179.710983 -22.583202 11.053665 -2.443756 0.352526 -0.955032 -0.000000 0.000000 0.000000 0.000000 0.000000 0.000000 0.000000 
1.552998 17.414487 0.635748 -172.397797 -40.193094 -174.229904 -1.417936 -7.817363 -7.112249 -0.573737 -7.899987 -4.237163 -7.515943 -7.849362 -2.564684 16.538730 -11.490869 -2.315875 -1.721732 -0.217610 1.577182 0.000000 0.000000 0.000000 28.530379 -11.710450 3.062921 -7.370861 -15.308906 -66.894137 1.861497 -28.602349 -0.139381 10.034722 -5.716250 -0.592972 -0.179490 0.902752 -0.000000 0.000000 0.000000 0.000000 0.000000 0.000000 0.000000 9.913034 -10.654620 -7.896663 96.074227 49.415974 35.359800 -176.114761 60.900242 179.709535 -22.557516 11.051770 -2.441741 0.353048 -0.960240 -0.000000 0.000000 0.000000 0.000000 0.000000 0.000000 0.000000 
1.550912 17.413677 0.639920 -172.692361 -40.727115 -173.980770 -1.295434 -7.679871 -7.178287 -0.559584 -7.798932 -4.299983 -7.482050 -7.750188 -2.759561 15.985268 -11.374342 -1.996285 -1.829499 -0.229331 1.671847 0.000000 0.000000 0.000000 28.249608 -11.684291 2.539746 -6.855239 -15.642060 -66.229563 1.879982 -35.031427 -0.161244 10.932323 -6.051144 -0.683639 -0.185831 0.957638 -0.000000 0.000000 0.000000 0.000000 0.000000 0.000000 0.000000 9.428597 -10.363937 -7.743767 95.962617 49.185280 35.121886 -176.182691 61.083481 179.707798 -22.548679 11.046229 -2.440714 0.353500 -0.965498 -0.000000 0.000000 0.000000 0.000000 0.000000 0.000000 0.000000 
